<svg width="18" height="21" viewBox="0 0 18 21" fill="none" xmlns="http://www.w3.org/2000/svg">
<path d="M0.359863 3.9043C0.359863 3.41211 0.506348 3.02539 0.799316 2.74414C1.09814 2.46289 1.49951 2.32227 2.00342 2.32227H3.67334C3.76709 1.86523 3.97803 1.51074 4.30615 1.25879C4.64014 1.00098 5.07959 0.87207 5.62451 0.87207H12.6997C13.2505 0.87207 13.6899 1.00098 14.0181 1.25879C14.3462 1.51074 14.5571 1.86523 14.6509 2.32227H16.3208C16.8247 2.32227 17.2231 2.46289 17.5161 2.74414C17.8149 3.02539 17.9644 3.41211 17.9644 3.9043C17.9644 5.09375 17.7681 6.14551 17.3755 7.05957C16.9829 7.96777 16.394 8.74121 15.6089 9.37988C14.8296 10.0127 13.8569 10.5107 12.6909 10.874C12.4097 11.2256 12.1138 11.542 11.8032 11.8232C11.4927 12.1045 11.1821 12.3447 10.8716 12.5439V16.1914H12.2427C12.8755 16.1914 13.3589 16.3672 13.6929 16.7188C14.0269 17.0645 14.1938 17.5391 14.1938 18.1426V19.6367C14.1938 19.8711 14.1147 20.0615 13.9565 20.208C13.7983 20.3545 13.6079 20.4277 13.3853 20.4277H4.93018C4.71338 20.4277 4.52588 20.3545 4.36768 20.208C4.20947 20.0615 4.13037 19.8711 4.13037 19.6367V18.1426C4.13037 17.5391 4.29736 17.0645 4.63135 16.7188C4.96533 16.3672 5.4458 16.1914 6.07275 16.1914H7.45264V12.5439C7.14209 12.3447 6.83154 12.1045 6.521 11.8232C6.21045 11.542 5.91162 11.2256 5.62451 10.874C4.4585 10.5107 3.48584 10.0127 2.70654 9.37988C1.92725 8.74121 1.34131 7.96777 0.94873 7.05957C0.556152 6.14551 0.359863 5.09375 0.359863 3.9043ZM1.82764 4.10645C1.82764 5.23145 2.04443 6.18945 2.47803 6.98047C2.91162 7.77148 3.54736 8.38965 4.38525 8.83496C4.14502 8.33691 3.95459 7.80664 3.81396 7.24414C3.67334 6.68164 3.60303 6.0957 3.60303 5.48633V3.86035H2.07373C2.00342 3.86035 1.94482 3.88672 1.89795 3.93945C1.85107 3.98633 1.82764 4.04199 1.82764 4.10645ZM13.939 8.83496C14.7769 8.38965 15.4126 7.77148 15.8462 6.98047C16.2798 6.18945 16.4966 5.23145 16.4966 4.10645C16.4966 4.04199 16.4731 3.98633 16.4263 3.93945C16.3794 3.88672 16.3208 3.86035 16.2505 3.86035H14.7212V5.48633C14.7212 6.0957 14.6479 6.68164 14.5015 7.24414C14.3608 7.80664 14.1733 8.33691 13.939 8.83496Z" fill="#6B02F5"/>
</svg>
