<svg width="21" height="17" viewBox="0 0 21 17" fill="none" xmlns="http://www.w3.org/2000/svg">
<path d="M1.75415 12.8467V5.28809C1.75415 5.02441 1.83325 4.81641 1.99146 4.66406C2.15552 4.50586 2.37231 4.42676 2.64185 4.42676H4.60181C4.88306 4.42676 5.10278 4.50586 5.26099 4.66406C5.41919 4.81641 5.49829 5.02441 5.49829 5.28809V12.8467C5.49829 13.1162 5.41919 13.3301 5.26099 13.4883C5.10278 13.6406 4.88306 13.7168 4.60181 13.7168H2.64185C2.37231 13.7168 2.15552 13.6406 1.99146 13.4883C1.83325 13.3301 1.75415 13.1162 1.75415 12.8467ZM6.56177 12.8467V1.29785C6.56177 1.02832 6.64087 0.817383 6.79907 0.665039C6.96313 0.512695 7.177 0.436523 7.44067 0.436523H9.40942C9.67896 0.436523 9.89282 0.512695 10.051 0.665039C10.2151 0.817383 10.2971 1.02832 10.2971 1.29785V12.8467C10.2971 13.1162 10.2151 13.3301 10.051 13.4883C9.89282 13.6406 9.67896 13.7168 9.40942 13.7168H7.44067C7.177 13.7168 6.96313 13.6406 6.79907 13.4883C6.64087 13.3301 6.56177 13.1162 6.56177 12.8467ZM11.3606 12.8467V3.36328C11.3606 3.09375 11.4397 2.88281 11.5979 2.73047C11.7561 2.57227 11.9729 2.49316 12.2483 2.49316H14.2083C14.4778 2.49316 14.6946 2.57227 14.8586 2.73047C15.0227 2.88281 15.1047 3.09375 15.1047 3.36328V12.8467C15.1047 13.1162 15.0227 13.3301 14.8586 13.4883C14.6946 13.6406 14.4778 13.7168 14.2083 13.7168H12.2483C11.9729 13.7168 11.7561 13.6406 11.5979 13.4883C11.4397 13.3301 11.3606 13.1162 11.3606 12.8467ZM16.1594 12.8467V7.17773C16.1594 6.9082 16.2385 6.69434 16.3967 6.53613C16.5608 6.37793 16.7776 6.29883 17.0471 6.29883H19.0071C19.2825 6.29883 19.4993 6.37793 19.6575 6.53613C19.8215 6.69434 19.9036 6.9082 19.9036 7.17773V12.8467C19.9036 13.1162 19.8215 13.3301 19.6575 13.4883C19.4993 13.6406 19.2825 13.7168 19.0071 13.7168H17.0471C16.7776 13.7168 16.5608 13.6406 16.3967 13.4883C16.2385 13.3301 16.1594 13.1162 16.1594 12.8467ZM0.796143 16.0371C0.796143 15.7969 0.881104 15.5947 1.05103 15.4307C1.22095 15.2666 1.4231 15.1846 1.65747 15.1846H20.0002C20.2405 15.1846 20.4456 15.2666 20.6155 15.4307C20.7854 15.5947 20.8704 15.7969 20.8704 16.0371C20.8704 16.2832 20.7854 16.4854 20.6155 16.6436C20.4456 16.8076 20.2405 16.8896 20.0002 16.8896H1.65747C1.4231 16.8896 1.22095 16.8076 1.05103 16.6436C0.881104 16.4854 0.796143 16.2832 0.796143 16.0371Z" fill="#6B02F5"/>
</svg>
